<?xml version="1.0" encoding="utf-8"?>
<!-- Generator: Adobe Illustrator 21.1.0, SVG Export Plug-In . SVG Version: 6.00 Build 0)  -->
<svg version="1.1" id="Layer_1" xmlns="http://www.w3.org/2000/svg" xmlns:xlink="http://www.w3.org/1999/xlink" x="0px" y="0px"
	 viewBox="0 0 16 16" style="enable-background:new 0 0 16 16;" xml:space="preserve">
<style type="text/css">
	.st0{fill:url(#SVGID_1_);}
	.st1{fill:#BD212F;}
	.st2{opacity:0.35;fill:#BD212F;enable-background:new    ;}
	.st3{fill:url(#SVGID_2_);}
	.st4{fill:url(#SVGID_3_);}
	.st5{fill:url(#SVGID_4_);}
	.st6{fill:url(#SVGID_5_);}
	.st7{fill:url(#SVGID_6_);}
	.st8{fill:url(#SVGID_7_);}
	.st9{fill:url(#_x37__3_);}
	.st10{fill:url(#SVGID_8_);}
</style>
<linearGradient id="SVGID_1_" gradientUnits="userSpaceOnUse" x1="10.4914" y1="17.4102" x2="13.9793" y2="18.3798" gradientTransform="matrix(0.9483 0.3175 0.3175 -0.9483 -2.7466 15.3397)">
	<stop  offset="0" style="stop-color:#F59824"/>
	<stop  offset="0.312" style="stop-color:#F69924"/>
	<stop  offset="0.838" style="stop-color:#E87926"/>
</linearGradient>
<path class="st0" d="M13.9,1.2c-0.3,0.1-0.8,0.4-1.5,0.8l0.2,1C13,2.6,13.5,2.3,13.9,2c0,0,0,0,0,0s0,0,0,0
	c-0.1,0.1-0.6,0.3-1.3,0.9c0.5,0.1,1.2,0.3,1.8,0.4c0.5-0.9,0.3-1.5,0.3-1.5S14.5,1,13.9,1.2"/>
<g>
	<path class="st1" d="M10,7.8c-0.1,0-0.1,0-0.2,0c0,0,0.1,0,0.1,0C9.9,7.8,10,7.8,10,7.8"/>
	<path class="st2" d="M10,7.8c-0.1,0-0.1,0-0.2,0c0,0,0.1,0,0.1,0C9.9,7.8,10,7.8,10,7.8"/>
	<path class="st1" d="M10.4,7.1L10.4,7.1L10.4,7.1c0.1,0,0.1,0,0.1,0C10.5,7.1,10.5,7.1,10.4,7.1"/>
	<path class="st2" d="M10.4,7.1L10.4,7.1L10.4,7.1c0.1,0,0.1,0,0.1,0C10.5,7.1,10.5,7.1,10.4,7.1"/>
</g>
<linearGradient id="SVGID_2_" gradientUnits="userSpaceOnUse" x1="2.8073" y1="1.7824" x2="9.9" y2="16.9929" gradientTransform="matrix(0.9483 0.3175 0.3175 -0.9483 -2.7466 15.3397)">
	<stop  offset="0.323" style="stop-color:#9E2064"/>
	<stop  offset="0.63" style="stop-color:#C82038"/>
	<stop  offset="0.751" style="stop-color:#CC2135"/>
	<stop  offset="1" style="stop-color:#E87926"/>
</linearGradient>
<path class="st3" d="M10.5,4.7c0.2-0.2,0.4-0.4,0.7-0.6c0.2-0.2,0.5-0.4,0.7-0.6c0,0,0,0,0,0c0.2-0.2,0.5-0.4,0.7-0.5l-0.2-1
	c0,0-0.1,0.1-0.2,0.1c-0.2,0.1-0.4,0.2-0.6,0.4c-0.2,0.2-0.5,0.3-0.7,0.5c-0.2,0.2-0.4,0.3-0.7,0.5C10,3.6,9.8,3.7,9.6,3.9
	c0,0,0,0,0,0l0.2,1.4C10.1,5.1,10.3,4.9,10.5,4.7"/>
<linearGradient id="SVGID_3_" gradientUnits="userSpaceOnUse" x1="5.2172" y1="2.8938" x2="9.4437" y2="11.9567" gradientTransform="matrix(0.9483 0.3175 0.3175 -0.9483 -2.7466 15.3397)">
	<stop  offset="0" style="stop-color:#282661"/>
	<stop  offset="9.500000e-02" style="stop-color:#662F8B"/>
	<stop  offset="0.788" style="stop-color:#9E2064"/>
	<stop  offset="0.949" style="stop-color:#CC2032"/>
</linearGradient>
<path class="st4" d="M5.6,10.3c-0.2,0.2-0.3,0.4-0.5,0.6c0,0,0,0-0.1,0.1c-0.1,0.1-0.2,0.3-0.4,0.5c0.1,0.1,0.2,0.4,0.3,0.7
	c0.1-0.3,0-0.5-0.1-0.7c0.9,0.3,1.7,0.3,2.2-0.2c0,0,0.1-0.1,0.1-0.1c-0.2,0.2-0.5,0.2-0.9,0c0.7-0.1,1.1-0.2,1.5-0.6
	c0.1-0.1,0.2-0.2,0.3-0.3c-0.7,0.4-1.3,0.3-2,0l-0.5-0.1C5.7,10.3,5.6,10.3,5.6,10.3"/>
<linearGradient id="SVGID_4_" gradientUnits="userSpaceOnUse" x1="3.096" y1="2.688" x2="10.1887" y2="17.8983" gradientTransform="matrix(0.9483 0.3175 0.3175 -0.9483 -2.7466 15.3397)">
	<stop  offset="0.323" style="stop-color:#9E2064"/>
	<stop  offset="0.63" style="stop-color:#C82038"/>
	<stop  offset="0.751" style="stop-color:#CC2135"/>
	<stop  offset="1" style="stop-color:#E87926"/>
</linearGradient>
<path class="st5" d="M6.2,9.4c0.2-0.2,0.4-0.5,0.6-0.7C7,8.4,7.2,8.2,7.4,8C7.6,7.7,7.8,7.5,8,7.3c0.2-0.2,0.4-0.5,0.6-0.7
	C8.8,6.4,9,6.2,9.2,5.9c0.1-0.1,0.1-0.2,0.2-0.2c0.1-0.1,0.3-0.3,0.4-0.4l0,0L9.6,3.9c0,0,0,0,0,0C9.4,4.1,9.2,4.3,9,4.5
	C8.8,4.7,8.5,4.9,8.3,5.1C8.1,5.3,8,5.4,7.8,5.6c0,0-0.1,0.1-0.1,0.1C7.5,6,7.3,6.2,7.1,6.4C6.9,6.6,6.7,6.8,6.5,7
	C6.4,7.2,6.3,7.3,6.2,7.5C6.1,7.6,6,7.7,5.9,7.8C5.7,8.1,5.6,8.4,5.4,8.7L5.6,10c0.2-0.2,0.3-0.4,0.5-0.5C6.1,9.4,6.2,9.4,6.2,9.4"
	/>
<linearGradient id="SVGID_5_" gradientUnits="userSpaceOnUse" x1="3.8301" y1="3.6959" x2="7.5576" y2="11.6896" gradientTransform="matrix(0.9483 0.3175 0.3175 -0.9483 -2.7466 15.3397)">
	<stop  offset="0" style="stop-color:#282661"/>
	<stop  offset="9.500000e-02" style="stop-color:#662F8B"/>
	<stop  offset="0.788" style="stop-color:#9E2064"/>
	<stop  offset="0.949" style="stop-color:#CC2032"/>
</linearGradient>
<path class="st6" d="M5.4,8.7C5.2,9.1,5,9.4,4.9,9.8l0,0C4.8,9.5,4.4,9,4.4,9c0.2,0.6,0.3,1.2,0.1,1.7c-0.2,0-0.5-0.2-0.7-0.4
	C4,10.8,4.2,10.9,4.3,11c-0.3-0.1-0.7,0-1,0.1c0.5,0,0.9,0,1.1,0.2c-0.8,1-1.6,2.2-2.5,3.4c0.1,0,0.2,0,0.3-0.2
	c0.2-0.2,1.2-1.7,2.6-3.5c0,0,0.1-0.1,0.1-0.2c0,0,0,0,0,0c0.2-0.2,0.3-0.4,0.5-0.6c0,0,0,0,0.1-0.1L5.4,8.7L5.4,8.7"/>
<linearGradient id="SVGID_6_" gradientUnits="userSpaceOnUse" x1="4.7091" y1="1.9358" x2="11.8018" y2="17.146" gradientTransform="matrix(0.9483 0.3175 0.3175 -0.9483 -2.7466 15.3397)">
	<stop  offset="0.323" style="stop-color:#9E2064"/>
	<stop  offset="0.63" style="stop-color:#C82038"/>
	<stop  offset="0.751" style="stop-color:#CC2135"/>
	<stop  offset="1" style="stop-color:#E87926"/>
</linearGradient>
<path class="st7" d="M9.9,5.4C9.9,5.4,9.9,5.5,9.9,5.4C9.7,5.6,9.7,5.7,9.6,5.8S9.4,6,9.3,6.1c0,0-0.1,0.1-0.1,0.2
	C9,6.4,8.8,6.6,8.7,6.7C8.5,7,8.3,7.2,8.1,7.4C7.9,7.7,7.7,7.9,7.5,8.1C7.3,8.4,7.1,8.6,6.9,8.8C6.7,9,6.5,9.3,6.3,9.5c0,0,0,0,0,0
	C6.1,9.7,5.9,10,5.7,10.2c0,0,0,0,0,0l0.5,0.1l0,0c0.6,0.1,1.5,0,2.2-0.4c0.3-0.2,0.6-0.4,0.9-0.7c0.2-0.2,0.4-0.4,0.7-0.7
	c0.2-0.2,0.4-0.5,0.6-0.8c-0.2,0-0.3,0-0.5,0c0,0-0.1,0-0.1,0c0,0-0.1,0-0.1,0l0,0c0.6,0,1.1-0.3,1.5-0.7c-0.2,0.1-0.5,0.1-0.7,0.1
	c0,0-0.1,0-0.1,0l0,0l0,0c0.2,0,0.4,0,0.6-0.1c0,0,0.1,0,0.1,0c0.1,0,0.1-0.1,0.1-0.1s0.1,0,0.1-0.1c0.1,0,0.2-0.1,0.2-0.2
	c0,0,0,0,0.1-0.1c0,0,0,0,0.1-0.1c0.1-0.1,0.2-0.2,0.3-0.3c0,0,0.1-0.1,0.1-0.1c0,0,0,0,0,0c0,0,0.1-0.1,0.1-0.1
	c0,0,0.1-0.1,0.1-0.2c0,0,0,0-0.1,0c-0.2,0.1-0.5,0-0.7,0l0.5,0.1l-0.5-0.1l0,0c0,0-0.1,0-0.1,0L9.9,5.4L9.9,5.4"/>
<linearGradient id="SVGID_7_" gradientUnits="userSpaceOnUse" x1="4.1926" y1="1.0274" x2="11.285" y2="16.2387" gradientTransform="matrix(0.9483 0.3175 0.3175 -0.9483 -2.7466 15.3397)">
	<stop  offset="0.323" style="stop-color:#9E2064"/>
	<stop  offset="0.63" style="stop-color:#C82038"/>
	<stop  offset="0.751" style="stop-color:#CC2135"/>
	<stop  offset="1" style="stop-color:#E87926"/>
</linearGradient>
<path class="st8" d="M12.6,3c-0.2,0.2-0.4,0.3-0.7,0.6c0,0,0,0,0,0c-0.2,0.2-0.4,0.4-0.7,0.6c-0.2,0.2-0.4,0.4-0.7,0.6
	C10.3,5,10.1,5.2,9.9,5.5l1.5,0.3c0.5,0,0.7-0.2,1-0.4c0.1-0.1,0.2-0.1,0.2-0.2c0.2-0.2,0.5-0.4,0.7-0.6C13.6,4.4,13.8,4.2,14,4
	c0.1-0.1,0.2-0.2,0.3-0.4c0.1-0.1,0.1-0.2,0.2-0.3C13.8,3.2,13.1,3.1,12.6,3"/>
<g>
	<g>
		<path id="_x37_" class="st1" d="M9.9,7.8C9.9,7.8,9.9,7.8,9.9,7.8C9.9,7.8,9.9,7.8,9.9,7.8"/>
	</g>
	<g>
		<path id="_x37__1_" class="st1" d="M9.9,7.8C9.9,7.8,9.9,7.8,9.9,7.8C9.9,7.8,9.9,7.8,9.9,7.8"/>
	</g>
</g>
<g>
	
		<linearGradient id="_x37__3_" gradientUnits="userSpaceOnUse" x1="5.1672" y1="1.7222" x2="12.2598" y2="16.9325" gradientTransform="matrix(0.9483 0.3175 0.3175 -0.9483 -2.7466 15.3397)">
		<stop  offset="0.323" style="stop-color:#9E2064"/>
		<stop  offset="0.63" style="stop-color:#C82038"/>
		<stop  offset="0.751" style="stop-color:#CC2135"/>
		<stop  offset="1" style="stop-color:#E87926"/>
	</linearGradient>
	<path id="_x37__2_" class="st9" d="M9.9,7.8C9.9,7.8,9.9,7.8,9.9,7.8C9.9,7.8,9.9,7.8,9.9,7.8"/>
</g>
<g>
	<path class="st1" d="M10.4,7.1L10.4,7.1C10.4,7.1,10.4,7.1,10.4,7.1"/>
	<path class="st2" d="M10.4,7.1L10.4,7.1C10.4,7.1,10.4,7.1,10.4,7.1"/>
</g>
<linearGradient id="SVGID_8_" gradientUnits="userSpaceOnUse" x1="5.1135" y1="1.7473" x2="12.2061" y2="16.9575" gradientTransform="matrix(0.9483 0.3175 0.3175 -0.9483 -2.7466 15.3397)">
	<stop  offset="0.323" style="stop-color:#9E2064"/>
	<stop  offset="0.63" style="stop-color:#C82038"/>
	<stop  offset="0.751" style="stop-color:#CC2135"/>
	<stop  offset="1" style="stop-color:#E87926"/>
</linearGradient>
<path class="st10" d="M10.4,7.1L10.4,7.1C10.4,7.1,10.4,7.1,10.4,7.1"/>
</svg>
